# xmcd
#
# Track frame offsets:
#	155
#	11678
#	26397
#	44028
#	62327
#	79665
#	93364
#	106796
#	116505
#	130767
#	143362
#	154436
#
# Disc length: 2221 seconds
# Revision: 0
# Processed by: cddbd v1.5.2PL0 Copyright (c) Steve Scherf et al.
# Submitted via: dBpowerAMP V12.0
#
DISCID=8d08ab0c
DTITLE=Bobby Bare - Highway Fever
DYEAR=1900
DGENRE=
TTITLE0=On The Road Again
TTITLE1=Cadillac Ranch
TTITLE2=Nothin' But The Taillights
TTITLE3=Speed
TTITLE4=Tearin' It Up
TTITLE5=Highwayman
TTITLE6=Hot Rod Lincon
TTITLE7=The Race Is On
TTITLE8=Highway 40 Blues
TTITLE9=East Bound and Down
TTITLE10=King Of The Road
TTITLE11=500 Miles Away From Home
EXTD=
EXTT0=
EXTT1=
EXTT2=
EXTT3=
EXTT4=
EXTT5=
EXTT6=
EXTT7=
EXTT8=
EXTT9=
EXTT10=
EXTT11=
PLAYORDER=
